<?xml version="1.0" encoding="UTF-8" standalone="no"?>
<svg
   version="1.2"
   viewBox="0 0 384.00081 384"
   height="512"
   width="512"
   id="svg2"
   sodipodi:docname="favicon-a-512x512.svg"
   inkscape:version="1.3.1 (91b66b0783, 2023-11-16)"
   xmlns:inkscape="http://www.inkscape.org/namespaces/inkscape"
   xmlns:sodipodi="http://sodipodi.sourceforge.net/DTD/sodipodi-0.dtd"
   xmlns="http://www.w3.org/2000/svg"
   xmlns:svg="http://www.w3.org/2000/svg">
  <defs
     id="defs2" />
  <sodipodi:namedview
     id="namedview2"
     pagecolor="#ffffff"
     bordercolor="#666666"
     borderopacity="1.0"
     inkscape:showpageshadow="2"
     inkscape:pageopacity="0.0"
     inkscape:pagecheckerboard="0"
     inkscape:deskcolor="#d1d1d1"
     inkscape:zoom="0.49511873"
     inkscape:cx="-391.82521"
     inkscape:cy="372.6379"
     inkscape:window-width="1920"
     inkscape:window-height="974"
     inkscape:window-x="-11"
     inkscape:window-y="-11"
     inkscape:window-maximized="1"
     inkscape:current-layer="svg2" />
  <g
     id="g1"
     transform="matrix(2.8131868,0,0,2.8131868,-3.164837,-3.1648343)"
     style="stroke-width:0.355469">
    <rect
       style="fill:#f8f7ed;fill-opacity:1;stroke:none;stroke-width:0.799806;stroke-dasharray:none"
       id="rect1"
       width="136.50029"
       height="136.50029"
       x="1.125"
       y="1.124855"
       ry="14.01182" />
    <g
       fill-rule="evenodd"
       fill="#0084d5"
       id="g2"
       transform="matrix(0.93146351,0,0,0.93146351,15.000031,57.149541)"
       style="stroke-width:0.355469">
      <path
         d="M 0,26.25 9.21,0.022 14.116,14.56 19.043,0.022 28.344,26.25 H 24.021 L 19.033,13.406 14.116,26.25 9.222,13.406 4.305,26.25 Z m 52.661,0 V 0.018 h 6.738 c 6.755,0 8.668,6.877 5.813,9.55 9.276,2.839 5.254,17.154 -5.993,16.667 z m 4.31,-4.326 V 4.33 h 1.851 c 2.898,0 3.78,3.672 0.654,6.162 8.743,1.61 8.271,11.188 0.076,11.417 l -2.582,0.014 z m 0,0"
         id="path1"
         style="stroke-width:0.355469" />
      <path
         d="M 67.836,26.25 78.536,0.018 89.04,26.25 H 84.606 L 82.268,20.587 H 74.771 L 72.48,26.25 Z m 8.726,-10.004 1.974,-4.706 1.988,4.704 z m 19.401,9.993 V 0.01 L 102.976,0 c 6.874,0.011 8.267,7.797 5.418,9.531 6.372,1.365 8.35,10.556 8.358,16.708 h -4.335 c 0,-10.006 -3.09,-14.32 -9.57,-15.844 3.16,-2.49 2.024,-6.069 -0.522,-6.069 h -2.018 v 21.913 z m 18.6,-25.071 h -0.459 v 0.809 h 0.441 c 0.258,0 0.46,-0.018 0.555,-0.074 a 0.34,0.34 0 0 0 0.165,-0.313 c 0,-0.147 -0.056,-0.257 -0.165,-0.312 -0.112,-0.074 -0.297,-0.11 -0.555,-0.11 z m 0.056,-0.297 c 0.35,0 0.61,0.074 0.793,0.165 a 0.602,0.602 0 0 1 0.257,0.518 c 0,0.183 -0.056,0.33 -0.165,0.441 a 0.778,0.778 0 0 1 -0.444,0.221 l 0.573,1.215 h -0.442 l -0.518,-1.16 h -0.569 v 1.162 h -0.406 V 0.869 Z m 1.862,1.326 c 0,-0.257 -0.056,-0.514 -0.15,-0.735 a 1.891,1.891 0 0 0 -0.422,-0.646 1.877,1.877 0 0 0 -0.626,-0.423 2.06,2.06 0 0 0 -0.756,-0.147 c -0.258,0 -0.497,0.056 -0.738,0.147 -0.221,0.073 -0.44,0.238 -0.626,0.405 -0.183,0.202 -0.33,0.406 -0.422,0.645 a 2.114,2.114 0 0 0 -0.147,0.754 c 0,0.242 0.053,0.5 0.147,0.72 0.092,0.239 0.239,0.478 0.422,0.643 0.167,0.186 0.387,0.333 0.626,0.426 a 1.964,1.964 0 0 0 1.494,0 c 0.221,-0.093 0.46,-0.24 0.626,-0.426 0.182,-0.165 0.33,-0.386 0.423,-0.606 0.09,-0.24 0.148,-0.497 0.148,-0.756 z m -1.937,-2.19 a 2.1,2.1 0 0 1 0.812,0.165 c 0.276,0.11 0.514,0.276 0.717,0.479 0.201,0.202 0.37,0.424 0.462,0.7 0.128,0.258 0.183,0.552 0.183,0.827 0,0.297 -0.056,0.591 -0.165,0.849 a 2.013,2.013 0 0 1 -0.48,0.7 2.086,2.086 0 0 1 -0.717,0.462 2.164,2.164 0 0 1 -0.83,0.164 c -0.294,0 -0.57,-0.055 -0.83,-0.147 a 2.253,2.253 0 0 1 -0.7,-0.478 2.338,2.338 0 0 1 -0.48,-0.7 2.17,2.17 0 0 1 0,-1.659 c 0.113,-0.256 0.28,-0.516 0.48,-0.718 0.204,-0.203 0.442,-0.368 0.7,-0.46 a 1.834,1.834 0 0 1 0.83,-0.184 z m -80.37,0.788 c 2.734,-1.032 5.8,-1.078 8.852,0 z M 30.691,2.65 c 0.395,-0.304 0.88,-0.607 1.397,-0.896 H 45.08 c 0.547,0.289 0.987,0.592 1.366,0.896 z M 28.689,4.577 C 28.946,4.259 29.221,3.94 29.585,3.62 h 18.004 c 0.378,0.303 0.666,0.653 0.893,0.957 z m -1.383,1.855 c 0.168,-0.304 0.333,-0.608 0.576,-0.913 h 21.373 c 0.182,0.305 0.425,0.609 0.577,0.913 z M 26.368,8.358 C 26.487,8.04 26.655,7.721 26.806,7.4 h 23.59 c 0.166,0.321 0.288,0.64 0.395,0.957 z m -0.595,1.854 c 0.044,-0.304 0.137,-0.607 0.259,-0.91 h 25.075 c 0.122,0.287 0.183,0.606 0.26,0.91 z m -0.272,1.926 c 0.03,-0.364 0.076,-0.637 0.105,-0.97 h 25.959 c 0.03,0.333 0.075,0.652 0.122,0.97 z m -0.025,0.99 H 51.69 c 0,7.24 -5.86,13.115 -13.099,13.115 -7.226,0 -13.118,-5.86 -13.118,-13.115 M 89.58,0.004 h 4.296 V 26.236 H 89.58 Z m 0,0"
         id="path2"
         style="stroke-width:0.355469" />
    </g>
  </g>
</svg>
