<svg xmlns="http://www.w3.org/2000/svg" width="50" height="71.442"><defs><clipPath clipPathUnits="userSpaceOnUse" id="a"><path d="M0 668.976h544.252V0H0z"/></clipPath></defs><g transform="matrix(.16802 0 0 -.16802 -20.79 91.861)" clip-path="url(#a)"><path fill-rule="evenodd" fill="#1b438b" d="M286.223 176.488c0-19.04-30.466-34.449-68.033-34.449-37.568 0-68.05 15.408-68.05 34.45s30.482 34.464 68.05 34.464c37.567 0 68.033-15.422 68.033-34.465m-55.26 346.88v13.457l-25.421 9.903V231.41c-46.72-4.335-81.805-27.522-81.805-54.888 0-30.383 42.305-54.99 94.52-54.99 52.203 0 94.51 24.607 94.51 54.99 0 27.366-35.384 50.524-81.803 54.888v170.08H421.32v121.877z"/><path fill="#1b438b" d="M165.24 271.308h-2.677v4.738h2.995c1.67 0 3.545-.33 3.545-2.424 0-2.255-2.168-2.314-3.862-2.314m8.594 2.28c0 4.839-3.56 6.304-7.803 6.304h-8.047v-20.733h4.578v8.296h2.268l4.324-8.296h5.486l-5.274 8.75c2.937.528 4.468 2.785 4.468 5.679"/><path fill="#1b438b" d="M165.668 252.85c-9.017 0-16.363 7.347-16.363 16.346 0 9.02 7.346 16.35 16.363 16.35 9.006 0 16.318-7.33 16.318-16.35 0-9-7.311-16.345-16.317-16.345m0 36.716c-11.237 0-20.362-9.126-20.362-20.371 0-11.223 9.126-20.362 20.362-20.362 11.204 0 20.345 9.139 20.345 20.362 0 11.245-9.14 20.37-20.346 20.37"/><path fill-rule="evenodd" fill="#fff" d="M313.758 405.486h103.557v41.426H313.758zm-82.795 0h51.756v41.426h-51.756zm82.795 72.478h103.557v41.4H313.758zm-82.795 0h51.756v41.4h-51.756z"/></g></svg>