<svg xmlns="http://www.w3.org/2000/svg" xmlns:xlink="http://www.w3.org/1999/xlink" version="1.2" viewBox="0 0 31.5 31.5" height="42" width="42"><use xlink:href="#a" x="340.915" y="756.786" width="100%" height="100%" transform="translate(-367.536 -254.932)" fill="#fff"/><use xlink:href="#a" x="400.84" y="756.786" width="100%" height="100%" transform="translate(-367.536 -254.932)" fill="#fff"/><use xlink:href="#a" x="507.971" y="756.786" width="100%" height="100%" transform="translate(-367.536 -254.932)" fill="#fff"/><use xlink:href="#a" x="543.325" y="756.786" width="100%" height="100%" transform="translate(-367.536 -254.932)" fill="#fff"/><use xlink:href="#a" x="367.831" y="771.17" width="100%" height="100%" transform="translate(-367.536 -254.932)" fill="#fff"/><use xlink:href="#a" x="511.25" y="771.17" width="100%" height="100%" transform="translate(-367.536 -254.932)" fill="#fff"/><use xlink:href="#a" x="543.504" y="771.17" width="100%" height="100%" transform="translate(-367.536 -254.932)" fill="#fff"/><use y="84.15" x="95.05" xlink:href="#b" width="100%" height="100%" transform="translate(323.245 483.484)"/><use y="97.85" x="91.2" xlink:href="#c" width="100%" height="100%" transform="translate(323.245 483.484)"/><g transform="matrix(1.65249 0 0 1.65249 -143.767 -26.509)"><circle cx="96.532" cy="25.573" r="9.531" fill="#022c43"/><g fill="gold" stroke-width="4.575" color="#000" fill-rule="evenodd"><path style="text-indent:0;text-transform:none" d="M96.875 19.048v6.169c.85-.107 1.472-.476 1.91-.979.496-.568.753-1.32.754-2.08 0-1.435-.852-2.855-2.664-3.11zM93.068 22.594c-.761 0-1.516.253-2.085.748-.503.438-.871 1.062-.978 1.91h6.173c-.255-1.809-1.673-2.66-3.11-2.658zM96.885 25.908c.107.849.475 1.473.979 1.911.568.495 1.323.748 2.085.748 1.436 0 2.854-.844 3.11-2.654l-6.174-.005zM96.204 25.934c-.85.107-1.473.47-1.911.973-.495.568-.753 1.325-.753 2.085 0 1.435.852 2.85 2.664 3.105z" overflow="visible"/></g></g><use y="97.85" x="174.5" xlink:href="#c" width="100%" height="100%" transform="translate(323.245 483.484)"/><use y="111.9" x="77.05" xlink:href="#c" width="100%" height="100%" transform="translate(323.245 483.484)"/><use y="111.9" x="168.25" xlink:href="#c" width="100%" height="100%" transform="translate(323.245 483.484)"/><use y="125.95" x="183.6" xlink:href="#c" width="100%" height="100%" transform="translate(323.245 483.484)"/><use y="125.95" x="196.2" xlink:href="#c" width="100%" height="100%" transform="translate(323.245 483.484)"/><use y="125.95" x="226.55" xlink:href="#c" width="100%" height="100%" transform="translate(323.245 483.484)"/><use y="139.85" x="168.25" xlink:href="#c" width="100%" height="100%" transform="translate(323.245 483.484)"/><use y="139.85" x="201.6" xlink:href="#c" width="100%" height="100%" transform="translate(323.245 483.484)"/><use y="168.05" x="184.3" xlink:href="#c" width="100%" height="100%" transform="translate(323.245 483.484)"/><use y="168.05" x="191.75" xlink:href="#c" width="100%" height="100%" transform="translate(323.245 483.484)"/><use y="168.05" x="197.5" xlink:href="#c" width="100%" height="100%" transform="translate(323.245 483.484)"/><use y="168.05" x="213.35" xlink:href="#c" width="100%" height="100%" transform="translate(323.245 483.484)"/><use y="168.05" x="220.9" xlink:href="#c" width="100%" height="100%" transform="translate(323.245 483.484)"/><use y="781.25" x="304.8" xlink:href="#d" width="100%" height="100%" transform="translate(323.245 483.484)"/></svg>