<svg xmlns="http://www.w3.org/2000/svg" xmlns:xlink="http://www.w3.org/1999/xlink" version="1.2" viewBox="0 0 31.5 31.5" height="42" width="42"><use xlink:href="#a" x="340.915" y="756.786" width="100%" height="100%" transform="translate(-367.536 -408.578)" fill="#fff"/><use xlink:href="#a" x="400.84" y="756.786" width="100%" height="100%" transform="translate(-367.536 -408.578)" fill="#fff"/><use xlink:href="#a" x="507.971" y="756.786" width="100%" height="100%" transform="translate(-367.536 -408.578)" fill="#fff"/><use xlink:href="#a" x="543.325" y="756.786" width="100%" height="100%" transform="translate(-367.536 -408.578)" fill="#fff"/><use xlink:href="#a" x="367.831" y="771.17" width="100%" height="100%" transform="translate(-367.536 -408.578)" fill="#fff"/><use xlink:href="#a" x="511.25" y="771.17" width="100%" height="100%" transform="translate(-367.536 -408.578)" fill="#fff"/><use xlink:href="#a" x="543.504" y="771.17" width="100%" height="100%" transform="translate(-367.536 -408.578)" fill="#fff"/><use y="84.15" x="95.05" xlink:href="#b" width="100%" height="100%" transform="translate(323.245 329.838)"/><g transform="matrix(1.65249 0 0 1.65249 -143.767 -280.407)"><circle cx="96.532" cy="179.219" r="9.531" fill="#022c43"/><g fill="gold"><path d="M96.628 185.746h2.057v-2.59h1.321v-2.8h-1.32v-2.274h1.32v-2.8h-1.32v-2.59h-2.058zm1.672-2.59v2.204h-.429v-2.204zm1.32-2.414v2.028h-.941v-2.028zm-1.32-2.66v2.274h-.429v-2.274zm1.32-2.414v2.028h-.941v-2.028zm-1.32-2.59v2.204h-.429v-2.204zM93.057 183.156v-2.8h2.8v2.8zM93.057 178.082v-2.8h2.8v2.8zM89.426 180.619v-2.8h2.8v2.8zM103.637 180.619v-2.8h-2.8v2.8zm-2.414-.386v-2.028h2.028v2.028z"/></g></g><use y="97.85" x="91.2" xlink:href="#c" width="100%" height="100%" transform="translate(323.245 329.838)"/><use y="97.85" x="174.5" xlink:href="#c" width="100%" height="100%" transform="translate(323.245 329.838)"/><use y="111.9" x="77.05" xlink:href="#c" width="100%" height="100%" transform="translate(323.245 329.838)"/><use y="111.9" x="168.25" xlink:href="#c" width="100%" height="100%" transform="translate(323.245 329.838)"/><use y="125.95" x="183.6" xlink:href="#c" width="100%" height="100%" transform="translate(323.245 329.838)"/><use y="125.95" x="196.2" xlink:href="#c" width="100%" height="100%" transform="translate(323.245 329.838)"/><use y="125.95" x="226.55" xlink:href="#c" width="100%" height="100%" transform="translate(323.245 329.838)"/><use y="139.85" x="168.25" xlink:href="#c" width="100%" height="100%" transform="translate(323.245 329.838)"/><use y="139.85" x="201.6" xlink:href="#c" width="100%" height="100%" transform="translate(323.245 329.838)"/><use y="168.05" x="184.3" xlink:href="#c" width="100%" height="100%" transform="translate(323.245 329.838)"/><use y="168.05" x="191.75" xlink:href="#c" width="100%" height="100%" transform="translate(323.245 329.838)"/><use y="168.05" x="197.5" xlink:href="#c" width="100%" height="100%" transform="translate(323.245 329.838)"/><use y="168.05" x="213.35" xlink:href="#c" width="100%" height="100%" transform="translate(323.245 329.838)"/><use y="168.05" x="220.9" xlink:href="#c" width="100%" height="100%" transform="translate(323.245 329.838)"/><use y="781.25" x="304.8" xlink:href="#d" width="100%" height="100%" transform="translate(323.245 329.838)"/></svg>