<svg xmlns="http://www.w3.org/2000/svg" xmlns:xlink="http://www.w3.org/1999/xlink" version="1.2" viewBox="0 0 31.5 31.5" height="42" width="42"><use xlink:href="#a" x="340.915" y="756.786" width="100%" height="100%" transform="translate(-367.536 -337.335)" fill="#fff"/><use xlink:href="#a" x="400.84" y="756.786" width="100%" height="100%" transform="translate(-367.536 -337.335)" fill="#fff"/><use xlink:href="#a" x="507.971" y="756.786" width="100%" height="100%" transform="translate(-367.536 -337.335)" fill="#fff"/><use xlink:href="#a" x="543.325" y="756.786" width="100%" height="100%" transform="translate(-367.536 -337.335)" fill="#fff"/><use xlink:href="#a" x="367.831" y="771.17" width="100%" height="100%" transform="translate(-367.536 -337.335)" fill="#fff"/><use xlink:href="#a" x="511.25" y="771.17" width="100%" height="100%" transform="translate(-367.536 -337.335)" fill="#fff"/><use xlink:href="#a" x="543.504" y="771.17" width="100%" height="100%" transform="translate(-367.536 -337.335)" fill="#fff"/><circle r="15.749" cy="15.75" cx="15.75" fill="gold"/><path d="M15.75 0C7.065 0 0 7.065 0 15.75 0 24.435 7.065 31.5 15.75 31.5c8.685 0 15.75-7.065 15.75-15.75C31.5 7.065 24.435 0 15.75 0zm-5.137 25.134a.356.356 0 01-.506 0 .358.358 0 010-.506c3.892-3.892 1.296-7.329 0-8.625-1.13-1.13-4.472-5.166 0-9.637a.357.357 0 11.506.506c-3.892 3.892-1.297 7.328 0 8.625 1.13 1.13 4.471 5.166 0 9.637zm5.467 0a.356.356 0 01-.506 0 .357.357 0 010-.506c3.892-3.892 1.297-7.329 0-8.625-1.13-1.13-4.471-5.166 0-9.637a.358.358 0 11.506.506c-3.892 3.892-1.296 7.328 0 8.625 1.13 1.13 4.472 5.166 0 9.637zm5.468 0a.356.356 0 01-.506 0 .357.357 0 010-.506c3.892-3.892 1.296-7.329 0-8.625-1.13-1.13-4.472-5.166 0-9.637a.357.357 0 11.506.506c-3.892 3.892-1.297 7.328 0 8.625 1.13 1.13 4.471 5.166 0 9.637z" fill="#022c43"/><use y="84.15" x="95.05" xlink:href="#b" width="100%" height="100%" transform="translate(323.245 401.081)"/><use y="97.85" x="91.2" xlink:href="#c" width="100%" height="100%" transform="translate(323.245 401.081)"/><use y="97.85" x="174.5" xlink:href="#c" width="100%" height="100%" transform="translate(323.245 401.081)"/><use y="111.9" x="77.05" xlink:href="#c" width="100%" height="100%" transform="translate(323.245 401.081)"/><use y="111.9" x="168.25" xlink:href="#c" width="100%" height="100%" transform="translate(323.245 401.081)"/><use y="125.95" x="183.6" xlink:href="#c" width="100%" height="100%" transform="translate(323.245 401.081)"/><use y="125.95" x="196.2" xlink:href="#c" width="100%" height="100%" transform="translate(323.245 401.081)"/><use y="125.95" x="226.55" xlink:href="#c" width="100%" height="100%" transform="translate(323.245 401.081)"/><use y="139.85" x="168.25" xlink:href="#c" width="100%" height="100%" transform="translate(323.245 401.081)"/><use y="139.85" x="201.6" xlink:href="#c" width="100%" height="100%" transform="translate(323.245 401.081)"/><use y="168.05" x="184.3" xlink:href="#c" width="100%" height="100%" transform="translate(323.245 401.081)"/><use y="168.05" x="191.75" xlink:href="#c" width="100%" height="100%" transform="translate(323.245 401.081)"/><use y="168.05" x="197.5" xlink:href="#c" width="100%" height="100%" transform="translate(323.245 401.081)"/><use y="168.05" x="213.35" xlink:href="#c" width="100%" height="100%" transform="translate(323.245 401.081)"/><use y="168.05" x="220.9" xlink:href="#c" width="100%" height="100%" transform="translate(323.245 401.081)"/><use y="781.25" x="304.8" xlink:href="#d" width="100%" height="100%" transform="translate(323.245 401.081)"/></svg>