<?xml version="1.0" encoding="UTF-8" standalone="no"?>
<svg
   xmlns:dc="http://purl.org/dc/elements/1.1/"
   xmlns:cc="http://creativecommons.org/ns#"
   xmlns:rdf="http://www.w3.org/1999/02/22-rdf-syntax-ns#"
   xmlns:svg="http://www.w3.org/2000/svg"
   xmlns="http://www.w3.org/2000/svg"
   id="svg8"
   version="1.2"
   viewBox="0 0 195 195"
   height="260"
   width="260">
  <metadata
     id="metadata14">
    <rdf:RDF>
      <cc:Work
         rdf:about="">
        <dc:format>image/svg+xml</dc:format>
        <dc:type
           rdf:resource="http://purl.org/dc/dcmitype/StillImage" />
        <dc:title></dc:title>
      </cc:Work>
    </rdf:RDF>
  </metadata>
  <defs
     id="defs12" />
  <g
     transform="matrix(10.404332,0,0,10.404332,-189.23299,-0.02920555)"
     id="g6"
     fill-rule="evenodd"
     fill="#1c9ce1">
    <path
       id="path4"
       d="m 24.41,0.568 c 1.953,-0.737 4.143,-0.77 6.323,0 z m -2.488,1.325 c 0.282,-0.217 0.629,-0.434 0.998,-0.64 h 9.28 c 0.391,0.206 0.705,0.423 0.976,0.64 z m -1.43,1.376 c 0.184,-0.227 0.38,-0.455 0.64,-0.683 h 12.86 c 0.27,0.216 0.476,0.466 0.638,0.683 z m -0.988,1.325 c 0.12,-0.217 0.238,-0.434 0.412,-0.652 h 15.266 c 0.13,0.218 0.304,0.435 0.412,0.652 z m -0.67,1.376 c 0.085,-0.227 0.205,-0.455 0.313,-0.684 h 16.85 c 0.119,0.229 0.206,0.457 0.282,0.683 z m -0.425,1.324 c 0.032,-0.217 0.098,-0.433 0.185,-0.65 h 17.911 c 0.087,0.205 0.131,0.433 0.186,0.65 z M 18.215,8.67 C 18.236,8.41 18.269,8.215 18.29,7.977 h 18.542 c 0.021,0.238 0.054,0.466 0.087,0.693 z m -0.018,0.707 h 18.725 c 0,5.172 -4.185,9.368 -9.356,9.368 -5.162,0 -9.37,-4.186 -9.37,-9.368" />
  </g>
</svg>
