<svg xmlns="http://www.w3.org/2000/svg" version="1.2" viewBox="0 0 166.788 37.5" height="50" width="222.384"><g fill-rule="evenodd" fill="#1c9ce1"><path d="M0 37.5L13.156.032l7.01 20.768L27.204.032 40.492 37.5h-6.176L27.19 19.152 20.166 37.5l-6.992-18.348L6.15 37.5zm75.23 0V.026h9.626c9.65 0 12.382 9.824 8.304 13.642 13.252 4.056 7.506 24.506-8.562 23.81zm6.156-6.18V6.186h2.646c4.14 0 5.4 5.246.934 8.802 12.49 2.3 11.816 15.984.108 16.31l-3.688.02zm0 0"/><path d="M96.908 37.5L112.194.026 127.2 37.5h-6.334l-3.34-8.09h-10.71l-3.274 8.09zm12.466-14.292l2.82-6.722 2.84 6.72zm27.716 14.276V.016L147.108 0c9.82.016 11.81 11.138 7.74 13.616 9.104 1.95 11.928 15.08 11.94 23.868h-6.192c0-14.294-4.414-20.456-13.672-22.634 4.514-3.556 2.892-8.67-.746-8.67h-2.882v31.304zm26.572-35.816h-.656v1.156h.63c.368 0 .656-.026.792-.106a.486.486 0 00.236-.446c0-.21-.08-.368-.236-.446-.16-.106-.424-.158-.792-.158zm.08-.424c.5 0 .87.106 1.132.236a.86.86 0 01.368.74c0 .262-.08.472-.236.63a1.112 1.112 0 01-.634.316l.818 1.736h-.632l-.74-1.658h-.812v1.66h-.58V1.242zm2.66 1.894c0-.366-.08-.734-.214-1.05a2.702 2.702 0 00-.604-.922 2.682 2.682 0 00-.894-.604 2.944 2.944 0 00-1.08-.21c-.368 0-.71.08-1.054.21-.316.104-.63.34-.894.578-.262.288-.472.58-.604.922a3.02 3.02 0 00-.21 1.076c0 .346.076.714.21 1.028.132.342.342.684.604.92.238.266.552.476.894.608a2.806 2.806 0 002.134 0c.316-.132.656-.342.894-.608.26-.236.472-.552.604-.866.13-.342.212-.71.212-1.08zM163.634.01a3 3 0 011.16.236c.394.158.734.394 1.024.684.288.288.528.606.66 1 .184.368.262.788.262 1.182 0 .424-.08.844-.236 1.212a2.876 2.876 0 01-.686 1 2.98 2.98 0 01-1.024.66 3.092 3.092 0 01-1.186.234 3.52 3.52 0 01-1.186-.21 3.218 3.218 0 01-.998-.682 3.34 3.34 0 01-.686-1 3.1 3.1 0 010-2.37c.16-.366.398-.738.686-1.026.29-.29.63-.526 1-.658a2.62 2.62 0 011.184-.262zM48.82 1.136c3.906-1.474 8.286-1.54 12.646 0zm-4.976 2.65c.564-.434 1.258-.868 1.996-1.28H64.4c.782.412 1.41.846 1.952 1.28zm-2.86 2.752c.368-.454.76-.91 1.28-1.366h25.72c.54.432.952.932 1.276 1.366zm-1.976 2.65c.24-.434.476-.868.824-1.304h30.532c.26.436.608.87.824 1.304zm-1.34 2.752c.17-.454.41-.91.626-1.368h33.7c.238.458.412.914.564 1.366zm-.85 2.648c.064-.434.196-.866.37-1.3H73.01c.174.41.262.866.372 1.3zm-.388 2.752c.042-.52.108-.91.15-1.386h37.084c.042.476.108.932.174 1.386zm-.036 1.414h37.45c0 10.344-8.37 18.736-18.712 18.736-10.324 0-18.74-8.372-18.74-18.736M127.972.006h6.136V37.48h-6.136zm0 0"/></g></svg>