<?xml version="1.0" encoding="UTF-8" standalone="no"?>
<svg
   xmlns:dc="http://purl.org/dc/elements/1.1/"
   xmlns:cc="http://creativecommons.org/ns#"
   xmlns:rdf="http://www.w3.org/1999/02/22-rdf-syntax-ns#"
   xmlns:svg="http://www.w3.org/2000/svg"
   xmlns="http://www.w3.org/2000/svg"
   id="svg8"
   version="1.2"
   viewBox="0 0 166.788 37.5"
   height="50"
   width="222.384">
  <metadata
     id="metadata14">
    <rdf:RDF>
      <cc:Work
         rdf:about="">
        <dc:format>image/svg+xml</dc:format>
        <dc:type
           rdf:resource="http://purl.org/dc/dcmitype/StillImage" />
        <dc:title></dc:title>
      </cc:Work>
    </rdf:RDF>
  </metadata>
  <defs
     id="defs12" />
  <g
     transform="scale(2)"
     id="g6"
     fill-rule="evenodd"
     fill="#1c9ce1">
    <path
       id="path2"
       d="M 0,18.75 6.578,0.016 10.083,10.4 13.602,0.016 20.246,18.75 H 17.158 L 13.595,9.576 10.083,18.75 6.587,9.576 3.075,18.75 Z m 0,0 m 37.615,0 V 0.013 h 4.813 c 4.825,0 6.191,4.912 4.152,6.821 6.626,2.028 3.753,12.253 -4.281,11.905 z m 3.078,-3.09 V 3.093 h 1.323 c 2.07,0 2.7,2.623 0.467,4.401 6.245,1.15 5.908,7.992 0.054,8.155 l -1.844,0.01 z m 0,0" />
    <path
       id="path4"
       d="M 48.454,18.75 56.097,0.013 63.6,18.75 h -3.167 l -1.67,-4.045 h -5.355 l -1.637,4.045 z m 6.233,-7.146 1.41,-3.361 1.42,3.36 z m 0,0 m 13.858,7.138 V 0.008 L 73.554,0 c 4.91,0.008 5.905,5.569 3.87,6.808 4.552,0.975 5.964,7.54 5.97,11.934 H 80.298 C 80.298,11.595 78.091,8.514 73.462,7.425 75.719,5.647 74.908,3.09 73.089,3.09 h -1.441 v 15.652 z m 0,0 M 81.831,0.834 h -0.328 v 0.578 h 0.315 c 0.184,0 0.328,-0.013 0.396,-0.053 a 0.243,0.243 0 0 0 0.118,-0.223 c 0,-0.105 -0.04,-0.184 -0.118,-0.223 C 82.134,0.86 82.002,0.834 81.818,0.834 Z m 0.04,-0.212 c 0.25,0 0.435,0.053 0.566,0.118 a 0.43,0.43 0 0 1 0.184,0.37 c 0,0.131 -0.04,0.236 -0.118,0.315 a 0.556,0.556 0 0 1 -0.317,0.158 l 0.409,0.868 h -0.316 l -0.37,-0.829 h -0.406 v 0.83 h -0.29 V 0.621 Z m 1.33,0.947 c 0,-0.183 -0.04,-0.367 -0.107,-0.525 -0.066,-0.17 -0.171,-0.33 -0.302,-0.461 A 1.341,1.341 0 0 0 82.345,0.281 1.472,1.472 0 0 0 81.805,0.176 c -0.184,0 -0.355,0.04 -0.527,0.105 C 81.12,0.333 80.963,0.451 80.831,0.57 80.7,0.714 80.595,0.86 80.529,1.031 a 1.51,1.51 0 0 0 -0.105,0.538 c 0,0.173 0.038,0.357 0.105,0.514 0.066,0.171 0.171,0.342 0.302,0.46 0.119,0.133 0.276,0.238 0.447,0.304 a 1.403,1.403 0 0 0 1.067,0 C 82.503,2.781 82.673,2.676 82.792,2.543 82.922,2.425 83.028,2.267 83.094,2.11 83.159,1.939 83.2,1.755 83.2,1.57 Z M 81.817,0.005 c 0.197,0 0.394,0.04 0.58,0.118 0.197,0.079 0.367,0.197 0.512,0.342 0.144,0.144 0.264,0.303 0.33,0.5 0.092,0.184 0.131,0.394 0.131,0.591 0,0.212 -0.04,0.422 -0.118,0.606 a 1.438,1.438 0 0 1 -0.343,0.5 1.49,1.49 0 0 1 -0.512,0.33 1.546,1.546 0 0 1 -0.593,0.117 c -0.21,0 -0.407,-0.039 -0.593,-0.105 a 1.609,1.609 0 0 1 -0.499,-0.341 1.67,1.67 0 0 1 -0.343,-0.5 1.55,1.55 0 0 1 0,-1.185 c 0.08,-0.183 0.199,-0.369 0.343,-0.513 0.145,-0.145 0.315,-0.263 0.5,-0.329 a 1.31,1.31 0 0 1 0.592,-0.131 z m 0,0 M 24.41,0.568 c 1.953,-0.737 4.143,-0.77 6.323,0 z m 0,0 m -2.488,1.325 c 0.282,-0.217 0.629,-0.434 0.998,-0.64 h 9.28 c 0.391,0.206 0.705,0.423 0.976,0.64 z m 0,0 m -1.43,1.376 c 0.184,-0.227 0.38,-0.455 0.64,-0.683 h 12.86 c 0.27,0.216 0.476,0.466 0.638,0.683 z m 0,0 m -0.988,1.325 c 0.12,-0.217 0.238,-0.434 0.412,-0.652 h 15.266 c 0.13,0.218 0.304,0.435 0.412,0.652 z m 0,0 m -0.67,1.376 c 0.085,-0.227 0.205,-0.455 0.313,-0.684 h 16.85 c 0.119,0.229 0.206,0.457 0.282,0.683 z m 0,0 m -0.425,1.324 c 0.032,-0.217 0.098,-0.433 0.185,-0.65 h 17.911 c 0.087,0.205 0.131,0.433 0.186,0.65 z m 0,0 M 18.215,8.67 C 18.236,8.41 18.269,8.215 18.29,7.977 h 18.542 c 0.021,0.238 0.054,0.466 0.087,0.693 z m 0,0 m -0.018,0.707 h 18.725 c 0,5.172 -4.185,9.368 -9.356,9.368 -5.162,0 -9.37,-4.186 -9.37,-9.368 m 45.79,-9.374 h 3.068 V 18.74 h -3.068 z m 0,0" />
  </g>
</svg>
