<svg xmlns="http://www.w3.org/2000/svg" id="svg8" width="155.669" height="51.02" version="1.2" viewBox="0 0 116.752 38.265"><g id="g6-1-4-9-6" fill="#0084D5" fill-rule="evenodd" style="fill:#0084d5;fill-opacity:1"><path id="path2-3-6-8-9" d="M0 26.25 9.21.022l4.906 14.538L19.043.022l9.301 26.228h-4.323l-4.988-12.844-4.917 12.844-4.894-12.844L4.305 26.25Zm52.661 0V.018h6.738c6.755 0 8.668 6.877 5.813 9.55 9.276 2.839 5.254 17.154-5.993 16.667zm4.31-4.326V4.33h1.851c2.898 0 3.78 3.672.654 6.162 8.743 1.61 8.271 11.188.076 11.417l-2.582.014zm0 0" style="fill:#0084d5;fill-opacity:1"/><path id="path4-6-1-7-9" d="M67.836 26.25 78.536.018 89.04 26.25h-4.434l-2.338-5.663h-7.497L72.48 26.25Zm8.726-10.004 1.974-4.706 1.988 4.704zm19.401 9.993V.01l7.013-.01c6.874.011 8.267 7.797 5.418 9.531 6.372 1.365 8.35 10.556 8.358 16.708h-4.335c0-10.006-3.09-14.32-9.57-15.844 3.16-2.49 2.024-6.069-.522-6.069h-2.018v21.913zm18.6-25.071h-.459v.809h.441c.258 0 .46-.018.555-.074a.34.34 0 0 0 .165-.313c0-.147-.056-.257-.165-.312-.112-.074-.297-.11-.555-.11zm.056-.297c.35 0 .61.074.793.165a.602.602 0 0 1 .257.518c0 .183-.056.33-.165.441a.778.778 0 0 1-.444.221l.573 1.215h-.442l-.518-1.16h-.569v1.162h-.406V.869Zm1.862 1.326c0-.257-.056-.514-.15-.735a1.891 1.891 0 0 0-.422-.646 1.877 1.877 0 0 0-.626-.423 2.06 2.06 0 0 0-.756-.147c-.258 0-.497.056-.738.147-.221.073-.44.238-.626.405-.183.202-.33.406-.422.645a2.114 2.114 0 0 0-.147.754c0 .242.053.5.147.72.092.239.239.478.422.643.167.186.387.333.626.426a1.964 1.964 0 0 0 1.494 0c.221-.093.46-.24.626-.426.182-.165.33-.386.423-.606.09-.24.148-.497.148-.756zm-1.937-2.19a2.1 2.1 0 0 1 .812.165c.276.11.514.276.717.479.201.202.37.424.462.7.128.258.183.552.183.827a2.2 2.2 0 0 1-.165.849 2.013 2.013 0 0 1-.48.7 2.086 2.086 0 0 1-.717.462 2.164 2.164 0 0 1-.83.164c-.294 0-.57-.055-.83-.147a2.253 2.253 0 0 1-.7-.478 2.338 2.338 0 0 1-.48-.7 2.17 2.17 0 0 1 0-1.659c.113-.256.28-.516.48-.718.204-.203.442-.368.7-.46a1.834 1.834 0 0 1 .83-.184zm-80.37.788c2.734-1.032 5.8-1.078 8.852 0zM30.691 2.65c.395-.304.88-.607 1.397-.896H45.08c.547.289.987.592 1.366.896zm-2.002 1.927c.257-.318.532-.637.896-.957h18.004c.378.303.666.653.893.957zm-1.383 1.855c.168-.304.333-.608.576-.913h21.373c.182.305.425.609.577.913zm-.938 1.926c.119-.318.287-.637.438-.958h23.59c.166.321.288.64.395.957zm-.595 1.854c.044-.304.137-.607.259-.91h25.075c.122.287.183.606.26.91zm-.272 1.926c.03-.364.076-.637.105-.97h25.959c.03.333.075.652.122.97zm-.025.99H51.69c0 7.24-5.86 13.115-13.099 13.115-7.226 0-13.118-5.86-13.118-13.115M89.58.004h4.296v26.232H89.58Zm0 0" style="fill:#0084d5;fill-opacity:1"/></g><path id="text862-5-4-8-8-2" d="M43.453 38.146h-3.827V31.33h3.675v.96h-2.544v1.93h2.344v.956h-2.344v2.016h2.696zm.767-.27V36.71q.156.142.37.256.22.114.462.195.242.076.484.119.243.043.447.043.713 0 1.06-.238.352-.238.352-.69 0-.242-.119-.418-.114-.18-.323-.328-.209-.147-.494-.28-.28-.138-.604-.285-.347-.186-.647-.376-.3-.19-.523-.418-.218-.233-.347-.523-.123-.29-.123-.68 0-.48.214-.832.218-.357.57-.585.357-.233.808-.342.452-.114.923-.114 1.07 0 1.56.242v1.117q-.58-.418-1.494-.418-.252 0-.504.048-.247.047-.447.157-.194.109-.318.28-.124.171-.124.414 0 .228.095.394.096.167.276.304.186.138.447.271.266.129.613.28.357.186.67.39.32.205.557.452.242.248.38.552.143.3.143.684 0 .519-.21.875-.209.357-.565.58-.352.224-.813.324-.461.1-.975.1-.17 0-.423-.03-.247-.023-.508-.075-.262-.048-.495-.12-.233-.07-.375-.16zm9.856-5.587h-1.959v5.857h-1.131V32.29h-1.954v-.96h5.044zm.33 5.962q-.286 0-.486-.186-.2-.19-.2-.451 0-.266.2-.457.2-.19.485-.19.29 0 .49.19.204.19.204.457 0 .261-.204.451-.2.186-.49.186zm6.51-7.074v6.97h-1.103v-5.62q-.3.214-.647.366-.342.147-.784.261v-.94q.276-.091.532-.191.257-.1.504-.223.252-.124.504-.276.257-.152.528-.347zm5.839 3.19q0 1.022-.223 1.759-.22.737-.609 1.212-.385.475-.908.704-.518.223-1.117.223-.195 0-.395-.024-.195-.023-.375-.061-.176-.039-.324-.081-.142-.048-.237-.09v-.994q.1.062.247.128.147.062.318.114.176.048.362.081.19.029.366.029.404 0 .732-.157.333-.157.566-.466.233-.31.356-.766.129-.46.129-1.065h-.02q-.085.153-.228.29-.137.134-.318.238-.18.1-.404.162-.219.062-.47.062-.429 0-.8-.148-.366-.152-.637-.428-.27-.275-.427-.67-.153-.395-.153-.88 0-.532.176-.96.176-.432.485-.732.31-.304.728-.466.418-.166.908-.166.46 0 .87.176.413.17.722.551.314.376.495.975.185.599.185 1.45zm-1.15-.728q0-.342-.09-.622-.086-.28-.243-.48-.157-.2-.376-.31-.214-.109-.47-.109-.229 0-.438.095-.204.09-.361.262-.152.17-.243.413-.09.243-.09.537 0 .324.086.57.09.248.247.42.157.166.375.256.224.086.49.086.238 0 .437-.086.205-.09.352-.238.152-.152.238-.356.086-.205.086-.438zm6.452.728q0 1.022-.223 1.759-.22.737-.609 1.212-.385.475-.908.704-.518.223-1.117.223-.195 0-.395-.024-.195-.023-.375-.061-.176-.039-.324-.081-.142-.048-.237-.09v-.994q.1.062.247.128.147.062.318.114.176.048.362.081.19.029.366.029.404 0 .732-.157.333-.157.566-.466.233-.31.356-.766.129-.46.129-1.065h-.02q-.085.153-.228.29-.138.134-.318.238-.18.1-.404.162-.219.062-.47.062-.429 0-.8-.148-.366-.152-.637-.428-.27-.275-.428-.67-.152-.395-.152-.88 0-.532.176-.96.176-.432.485-.732.31-.304.728-.466.418-.166.908-.166.46 0 .87.176.413.17.722.551.314.376.495.975.185.599.185 1.45zm-1.15-.728q0-.342-.09-.622-.086-.28-.243-.48-.157-.2-.376-.31-.214-.109-.47-.109-.229 0-.438.095-.204.09-.361.262-.152.17-.243.413-.09.243-.09.537 0 .324.086.57.09.248.247.42.157.166.375.256.224.086.49.086.238 0 .437-.086.205-.09.352-.238.152-.152.238-.356.086-.205.086-.438zm6.219 4.507h-4.279v-.527q0-.324.09-.604.091-.285.243-.533.152-.252.357-.47.204-.224.437-.428.233-.21.476-.4.242-.194.475-.39.219-.185.4-.36.18-.181.308-.372.129-.19.2-.399.071-.214.071-.461 0-.271-.085-.47-.081-.205-.233-.338-.148-.138-.352-.205-.205-.07-.447-.07-.418 0-.85.194-.434.195-.833.585v-1.06q.21-.157.423-.271.214-.12.442-.195.229-.081.48-.12.252-.037.538-.037.46 0 .836.123.376.12.642.357.266.233.41.585.146.352.146.808 0 .414-.104.746-.1.328-.29.614-.186.285-.452.542-.266.256-.594.527-.276.224-.552.438-.27.209-.49.413-.218.2-.356.404-.133.2-.133.404v.024h3.076z" aria-label="EST. 1992" style="font-weight:600;font-size:9.73634px;line-height:1.1;font-family:&quot;Segoe UI&quot;;-inkscape-font-specification:&quot;Segoe UI Semi-Bold&quot;;letter-spacing:-.131931px;word-spacing:0;fill:#001e2e;stroke-width:.750001"/><style id="style837" type="text/css">.st0{fill:none}.st1{fill:#c00}</style></svg>