<svg xmlns="http://www.w3.org/2000/svg" xml:space="preserve" style="enable-background:new 0 0 152.82 199.52" viewBox="0 0 152.82 199.52"><style>.st2{fill:#fff}.st3{fill-rule:evenodd;clip-rule:evenodd}.st3,.st4{fill:#0084d5}</style><g id="Layer_2"><linearGradient id="SVGID_1_" x1="14.11" x2="138.712" y1="207.669" y2="-8.146" gradientUnits="userSpaceOnUse"><stop offset=".207" style="stop-color:#072542"/><stop offset=".964" style="stop-color:#1782b1"/></linearGradient><path d="M0 0h152.82v199.52H0z" style="fill:url(#SVGID_1_)"/></g><g id="Layer_1"><path d="M74.38 75.75c19.76 0 29.19 8.92 29.19 23.82 0 16.47-11.15 26.65-26.96 26.65-14.04 0-26.55-8.46-27.36-23.61h13.02c1.22 8.41 7.65 11.96 14.24 11.96 8.67 0 14.29-5.47 14.29-14.14 0-8.46-4.87-13.68-17.38-13.68H51.18l7.55-39.42h42.21v11.5H67.8l-2.94 16.92h9.52zM35.12 139.58h3.49L31 159.01h-3.58l-7.6-19.43h3.49l5.91 15.22 5.9-15.22zM40.52 152.4v-12.81h3.25v12.23c0 3.25 1.9 4.5 4.45 4.5 2.57 0 4.48-1.25 4.48-4.5v-12.23h3.25v12.81c0 4.42-3.3 6.92-7.73 6.92-4.4-.01-7.7-2.51-7.7-6.92zM58.6 149.3c0-5.67 4.44-10.02 10.16-10.02 5.73 0 10.17 4.35 10.17 10.02s-4.44 10.02-10.17 10.02c-5.72-.01-10.16-4.36-10.16-10.02zm17.07 0c0-3.91-3.04-6.95-6.92-6.95-3.86 0-6.91 3.04-6.91 6.95s3.05 6.94 6.91 6.94c3.89 0 6.92-3.04 6.92-6.94zM81.76 159.01v-19.43h6.67c5.62 0 9.55 3.83 9.55 9.71S94.05 159 88.43 159h-6.67zm3.24-2.92h3.02c4.11 0 6.7-2.44 6.7-6.79s-2.59-6.79-6.7-6.79H85v13.58zM112.18 142.5h-8.04v5.36h7.06v2.9h-7.06v5.33h8.04v2.92h-11.3v-19.43h11.3v2.92zM129.84 139.58H133v19.43h-2.86l-11.82-14.4v14.4h-3.17v-19.43h2.86l11.83 14.37v-14.37zM2.55 2.52h147.73v30.31H2.55z" class="st2"/><g id="g8389_00000180331270930739929940000000133681398450216075_" transform="matrix(1.25 0 0 -1.25 -138.798 339.966)"><g id="g3034_00000034081227525666374030000011820589142615593659_" transform="matrix(.16099 0 0 .16099 93.163 209.326)"><path id="path8391_00000173846441312523576420000002063629667638266532_" d="m145.82 256.84 31.46 89.59 16.76-49.66 16.83 49.66 31.77-89.59h-14.77l-17.03 43.87-16.79-43.87-16.73 43.87-16.79-43.87h-14.71z" class="st3"/><path id="path8393_00000076598871262126527670000007436501736413000871_" d="M325.71 256.84v89.6h23.02c23.07 0 29.61-23.49 19.86-32.62 31.68-9.7 17.94-58.59-20.48-56.93l-22.4-.05zm14.72 14.78v60.1h6.33c9.9 0 12.91-12.55 2.23-21.05 29.87-5.5 28.26-38.22.26-38.99l-8.82-.06z" class="st3"/><path id="path8395_00000052063444019209725570000015344313925665624195_" d="m377.54 256.84 36.56 89.6 35.88-89.6h-15.14l-7.99 19.34h-25.62l-7.83-19.34h-15.86zm29.82 34.17 6.74 16.07 6.79-16.07h-13.53z" class="st3"/><path id="path8397_00000103223414453014059940000017352763848621435804_" d="M473.63 256.88v89.59l23.96.03c23.48-.03 28.24-26.63 18.51-32.56 21.76-4.66 28.52-36.06 28.55-57.06h-14.81c0 34.17-10.56 48.91-32.7 54.12 10.8 8.5 6.92 20.74-1.78 20.74h-6.89v-74.85l-14.84-.01z" class="st3"/><path id="path8399_00000124840668477605392830000014306756107532068010_" d="M537.17 342.52h-1.57v-2.77h1.51c.88 0 1.57.06 1.89.25.38.25.57.57.57 1.07 0 .5-.19.88-.57 1.07-.38.25-1.01.38-1.89.38h.06zm.19 1.01c1.2 0 2.08-.25 2.71-.57.57-.38.88-1.01.88-1.76 0-.63-.19-1.13-.57-1.51-.38-.38-.94-.69-1.51-.75l1.95-4.15h-1.51l-1.76 3.96h-1.95v-3.96h-1.38v8.75h3.14v-.01zm6.35-4.53c0 .88-.19 1.76-.5 2.52-.31.82-.82 1.57-1.45 2.2-.57.57-1.32 1.13-2.14 1.45-.76.31-1.7.5-2.58.5-.88 0-1.7-.19-2.52-.5-.75-.25-1.51-.82-2.14-1.38-.63-.69-1.13-1.38-1.45-2.2-.31-.82-.5-1.7-.5-2.58 0-.82.19-1.7.5-2.45.31-.82.82-1.64 1.45-2.2.57-.63 1.32-1.13 2.14-1.45.76-.31 1.64-.5 2.52-.5.88 0 1.76.19 2.58.5.76.31 1.57.82 2.14 1.45.63.57 1.13 1.32 1.45 2.08.32.8.5 1.68.5 2.56zm-6.6 7.49c.94 0 1.89-.19 2.77-.57a7.23 7.23 0 0 0 2.45-1.64c.69-.69 1.26-1.45 1.57-2.39.44-.88.63-1.89.63-2.83 0-1.01-.19-2.01-.57-2.89-.31-.88-.94-1.7-1.64-2.39-.69-.69-1.51-1.2-2.45-1.57a7.3 7.3 0 0 0-2.83-.57c-1.01 0-1.95.19-2.83.5-.88.38-1.7.94-2.39 1.64a7.78 7.78 0 0 0-1.64 2.39c-.38.88-.57 1.89-.57 2.89 0 .94.19 1.89.57 2.77.38.88.94 1.76 1.64 2.45.69.69 1.51 1.26 2.39 1.57.88.44 1.82.63 2.83.63h.07z" class="st3"/><path id="path8401_00000005231828442811342430000007481855259852628662_" d="M262.57 343.79c9.33 3.53 19.81 3.68 30.23 0h-30.23z" class="st3"/><path id="path8403_00000034057927207819168270000011991567654653990845_" d="M250.66 337.46c1.35 1.04 3.01 2.07 4.77 3.06h44.39c1.87-.99 3.37-2.02 4.67-3.06h-53.83z" class="st3"/><path id="path8405_00000094589896691460231280000002977802977990487690_" d="M243.82 330.87c.88 1.09 1.81 2.18 3.06 3.27h61.5c1.3-1.04 2.28-2.23 3.06-3.27h-67.62z" class="st3"/><path id="path8407_00000060732797634815440310000007014008868196432055_" d="M239.1 324.54c.57 1.04 1.14 2.07 1.97 3.11h73.01c.62-1.04 1.45-2.07 1.97-3.11H239.1z" class="st3"/><path id="path8409_00000109015422410032387470000013519975043303973805_" d="M235.89 317.96c.41 1.09.99 2.18 1.5 3.27h80.58c.57-1.09.99-2.18 1.35-3.27h-83.43z" class="st3"/><path id="path8411_00000123407020268857992070000004691461415832861620_" d="M233.86 311.63c.16 1.04.47 2.07.88 3.11h85.66c.41-.99.62-2.07.88-3.11h-87.42z" class="st3"/><path id="path8413_00000063616872215701859840000001164273956772987537_" d="M232.93 305.04c.1 1.24.26 2.18.36 3.32h88.67c.1-1.14.26-2.23.41-3.32h-89.44z" class="st3"/><path id="path8415_00000145753509736431519310000005500704916665719703_" d="M232.85 301.67h89.55c0-24.73-20.02-44.8-44.75-44.8-24.68-.01-44.8 20.01-44.8 44.8" class="st3"/><path id="path8417_00000036214445308523605090000004329506457269537168_" d="M451.83 346.49h14.67v-89.6h-14.67v89.6z" class="st3"/></g></g><path d="M111.39 12.54c1.75 0 2.63.73 2.63 2.11 0 1.5-1 2.39-2.42 2.39-1.33 0-2.45-.81-2.47-2.14h1.46c.07.58.5.83 1 .83.63 0 .97-.39.97-.97 0-.65-.33-1.03-1.38-1.03h-1.92l.7-3.61h3.84v1.28h-2.85l-.19 1.13h.63zM121.41 16.92l-.49-1.27h-2.68l-.49 1.27h-1.08l2.35-6h1.11l2.35 6h-1.07zm-2.84-2.14h2.01l-1-2.62-1.01 2.62zm.1-5.11a.905.905 0 1 1 .91.91.92.92 0 0 1-.91-.91zm.49 0c0 .25.18.43.42.43.23 0 .43-.18.43-.43 0-.23-.19-.43-.43-.43-.23 0-.42.21-.42.43zM126.61 16.92l-1.45-2.54h-1.01v2.54h-1v-6h2.31c1.14 0 1.84.78 1.84 1.74 0 .74-.44 1.35-1.08 1.59l1.57 2.66h-1.18zm-2.47-5.12v1.71h1.21c.57 0 .93-.31.93-.85 0-.52-.36-.87-.93-.87h-1.21zM128.04 16.05l.61-.72c.39.48.96.81 1.56.81.55 0 .95-.3.95-.79 0-.53-.47-.77-1.2-1.08-1.01-.44-1.66-.84-1.66-1.78 0-1.01.75-1.66 1.79-1.66.77 0 1.42.34 1.9.81l-.55.7c-.45-.44-.91-.63-1.36-.63-.45 0-.8.24-.8.68 0 .41.27.64 1.19 1.03.99.43 1.68.88 1.68 1.88 0 1.1-.82 1.72-1.92 1.72-.87 0-1.69-.4-2.19-.97zM115.29 23.52c0 1.76-1.37 3.1-3.14 3.1s-3.14-1.34-3.14-3.09c0-1.75 1.37-3.09 3.14-3.09 1.12 0 2.07.54 2.62 1.37l-.87.48c-.38-.55-1.02-.91-1.76-.91-1.19 0-2.13.94-2.13 2.14s.94 2.14 2.13 2.14c1 0 1.82-.66 2.06-1.58h-1.59v-.86h2.65c.02.1.03.19.03.3zM120.13 26.52l-.49-1.27h-2.68l-.49 1.27h-1.08l2.35-6h1.11l2.35 6h-1.07zm-2.83-2.14h2.01l-1-2.62-1.01 2.62zM125.33 26.52l-1.45-2.54h-1.01v2.54h-1v-6h2.31c1.14 0 1.84.78 1.84 1.74 0 .74-.44 1.35-1.08 1.59l1.57 2.66h-1.18zm-2.46-5.12v1.71h1.21c.57 0 .93-.31.93-.85 0-.52-.36-.87-.93-.87h-1.21zM131.49 26.52l-.49-1.27h-2.68l-.49 1.27h-1.08l2.35-6h1.11l2.35 6h-1.07zm-2.83-2.14h2.01l-1-2.62-1.01 2.62zM137.76 20.52h.98v6h-.88l-3.65-4.45v4.45h-.98v-6h.88l3.65 4.44v-4.44zM143.57 20.52v.9h-1.58v5.1h-1v-5.1h-1.57v-.9h4.15zM144.24 26.52v-6h1v6h-1z" class="st4"/><path d="M53.53 184.5h6.3l-3.15-8.22z" class="st2"/><path d="M2.55 166.67v30.31h147.73v-30.31H2.55zm41.75 24.54h-3.14v-15.96h-4.93v-2.82h13.01v2.82H44.3v15.96zm18.09 0-1.53-3.99h-8.38l-1.53 3.99h-3.37l7.35-18.78h3.46l7.36 18.78h-3.36zm16.16 0-7.59-9.51v9.51h-3.14v-18.78h3.14v8.22l6.91-8.22h4.15l-7.52 8.78 8.11 10h-4.06zm20.42-6.39c0 4.27-3.19 6.69-7.47 6.69-4.25 0-7.45-2.42-7.45-6.69v-12.39h3.14v11.82c0 3.14 1.83 4.35 4.3 4.35 2.48 0 4.33-1.21 4.33-4.35v-11.82h3.14v12.39zm18.1 0c0 4.27-3.19 6.69-7.47 6.69-4.25 0-7.45-2.42-7.45-6.69v-12.39h3.14v11.82c0 3.14 1.83 4.35 4.3 4.35 2.48 0 4.33-1.21 4.33-4.35v-11.82h3.14v12.39z" class="st2"/></g></svg>