<svg xmlns="http://www.w3.org/2000/svg" xml:space="preserve" style="enable-background:new 0 0 152.82 168.17" viewBox="0 0 152.82 168.17"><style>.st2{fill:#fff}</style><g id="Layer_2"><linearGradient id="SVGID_1_" x1="20.899" x2="131.923" y1="180.234" y2="-12.066" gradientUnits="userSpaceOnUse"><stop offset=".207" style="stop-color:#072542"/><stop offset=".964" style="stop-color:#1782b1"/></linearGradient><path d="M0 0h152.82v168.17H0z" style="fill:url(#SVGID_1_)"/></g><g id="Layer_1"><path d="M74.38 44.4c19.76 0 29.19 8.92 29.19 23.82 0 16.47-11.15 26.65-26.96 26.65-14.04 0-26.55-8.46-27.36-23.61h13.02c1.22 8.41 7.65 11.96 14.24 11.96 8.67 0 14.29-5.47 14.29-14.14 0-8.46-4.87-13.68-17.38-13.68H51.18l7.55-39.42h42.21v11.5H67.8L64.86 44.4h9.52zM35.12 108.23h3.49L31 127.66h-3.58l-7.6-19.43h3.49l5.91 15.22 5.9-15.22zM40.52 121.04v-12.81h3.25v12.23c0 3.25 1.9 4.5 4.45 4.5 2.57 0 4.48-1.25 4.48-4.5v-12.23h3.25v12.81c0 4.42-3.3 6.92-7.73 6.92-4.4 0-7.7-2.5-7.7-6.92zM58.6 117.94c0-5.67 4.44-10.02 10.16-10.02 5.73 0 10.17 4.35 10.17 10.02s-4.44 10.02-10.17 10.02c-5.72 0-10.16-4.35-10.16-10.02zm17.07 0c0-3.91-3.04-6.95-6.92-6.95-3.86 0-6.91 3.04-6.91 6.95s3.05 6.94 6.91 6.94c3.89.01 6.92-3.03 6.92-6.94zM81.76 127.66v-19.43h6.67c5.62 0 9.55 3.83 9.55 9.71s-3.93 9.71-9.55 9.71h-6.67zm3.24-2.93h3.02c4.11 0 6.7-2.44 6.7-6.79s-2.59-6.79-6.7-6.79H85v13.58zM112.18 111.15h-8.04v5.36h7.06v2.9h-7.06v5.33h8.04v2.92h-11.3v-19.43h11.3v2.92zM129.84 108.23H133v19.43h-2.86l-11.82-14.4v14.4h-3.17v-19.43h2.86l11.83 14.37v-14.37zM53.53 153.14h6.3l-3.15-8.21z" class="st2"/><path d="M2.55 135.31v30.31h147.73v-30.31H2.55zm41.75 24.55h-3.14V143.9h-4.93v-2.82h13.01v2.82H44.3v15.96zm18.09 0-1.53-3.99h-8.38l-1.53 3.99h-3.37l7.35-18.78h3.46l7.36 18.78h-3.36zm16.16 0-7.59-9.51v9.51h-3.14v-18.78h3.14v8.22l6.91-8.22h4.15l-7.52 8.78 8.11 10h-4.06zm20.42-6.4c0 4.27-3.19 6.69-7.47 6.69-4.25 0-7.45-2.42-7.45-6.69v-12.39h3.14v11.82c0 3.14 1.83 4.35 4.3 4.35 2.48 0 4.33-1.21 4.33-4.35v-11.82h3.14v12.39zm18.1 0c0 4.27-3.19 6.69-7.47 6.69-4.25 0-7.45-2.42-7.45-6.69v-12.39h3.14v11.82c0 3.14 1.83 4.35 4.3 4.35 2.48 0 4.33-1.21 4.33-4.35v-11.82h3.14v12.39z" class="st2"/></g></svg>