<?xml version="1.0" encoding="UTF-8" standalone="no"?>
<svg
   xmlns:dc="http://purl.org/dc/elements/1.1/"
   xmlns:cc="http://creativecommons.org/ns#"
   xmlns:rdf="http://www.w3.org/1999/02/22-rdf-syntax-ns#"
   xmlns:svg="http://www.w3.org/2000/svg"
   xmlns="http://www.w3.org/2000/svg"
   xmlns:sodipodi="http://sodipodi.sourceforge.net/DTD/sodipodi-0.dtd"
   xmlns:inkscape="http://www.inkscape.org/namespaces/inkscape"
   width="28.999336"
   height="19.771999"
   viewBox="0 0 28.999335 19.771999"
   fill="none"
   version="1.1"
   id="svg11"
   sodipodi:docname="youtube.svg"
   inkscape:version="1.0.1 (3bc2e813f5, 2020-09-07)">
  <metadata
     id="metadata15">
    <rdf:RDF>
      <cc:Work
         rdf:about="">
        <dc:format>image/svg+xml</dc:format>
        <dc:type
           rdf:resource="http://purl.org/dc/dcmitype/StillImage" />
        <dc:title></dc:title>
      </cc:Work>
    </rdf:RDF>
  </metadata>
  <sodipodi:namedview
     pagecolor="#ffffff"
     bordercolor="#666666"
     borderopacity="1"
     objecttolerance="10"
     gridtolerance="10"
     guidetolerance="10"
     inkscape:pageopacity="0"
     inkscape:pageshadow="2"
     inkscape:window-width="1920"
     inkscape:window-height="974"
     id="namedview13"
     showgrid="false"
     inkscape:zoom="8.3958333"
     inkscape:cx="-5.2057585"
     inkscape:cy="6.090821"
     inkscape:window-x="-11"
     inkscape:window-y="-11"
     inkscape:window-maximized="1"
     inkscape:current-layer="svg11"
     fit-margin-top="0"
     fit-margin-left="0"
     fit-margin-right="0"
     fit-margin-bottom="0" />
  <defs
     id="defs9">
    <clipPath
       id="clip0">
      <path
         fill="#ffffff"
         d="M 0,0 H 24 V 24 H 0 Z"
         id="path6" />
    </clipPath>
  </defs>
  <g
     id="g857"
     transform="matrix(1.3181333,0,0,1.3181333,-37.344402,-5.9961252)"
     style="stroke-width:0.758648">
    <path
       d="m 31.554279,4.5489521 h 15.614 a 3,3 0 0 1 2.987,2.726 46.12,46.12 0 0 1 0.176,4.1969999 c 0,1.782 -0.08,3.564 -0.241,5.346 a 3,3 0 0 1 -2.988,2.731 h -15.548 a 3,3 0 0 1 -2.987,-2.72 51.277,51.277 0 0 1 -0.236,-4.78 c 0,-1.51 0.079,-3.1039999 0.236,-4.7799999 a 3,3 0 0 1 2.987,-2.72 z"
       fill="#335eea"
       opacity="0.3"
       id="path4"
       style="opacity:1;fill:#869ab8;fill-opacity:1;fill-rule:evenodd;stroke-width:0.584534" />
    <path
       d="m 38.513279,15.353952 4.404,-3.01 a 0.5,0.5 0 0 0 0,-0.824 l -4.403,-3.0299999 a 0.5,0.5 0 0 0 -0.783,0.413 v 6.0389999 a 0.5,0.5 0 0 0 0.782,0.412 z"
       fill="#335eea"
       id="path6-7"
       style="fill:#ffffff;fill-opacity:1;fill-rule:evenodd;stroke-width:0.584534" />
  </g>
</svg>
